/* XPM */
static char *ba6a30eeabda4026a809554a0d76bdcaNE8upajbOYdkPn3n[] = {
/* columns rows colors chars-per-pixel */
"64 64 2 1 ",
"  c #03611C",
". c #04D13E",
/* pixels */
"                                                                ",
"                                                                ",
"                                                                ",
"                                                                ",
"                                                                ",
"                                                                ",
"                                                                ",
"                                                                ",
"                                                                ",
"                                                                ",
"                                                                ",
"                                                                ",
"                                                                ",
"                                                                ",
"                                                                ",
"                                                                ",
"                                                                ",
"                                                                ",
"                                                                ",
"                                                                ",
"                                                                ",
"                                                                ",
"                                                                ",
"                                                                ",
"            ........    ....      ......  ..........            ",
"            ........    ....      ......  ..........            ",
"            ..        ..    ..  ..            ..                ",
"            ..        ..    ..  ..            ..                ",
"            ......    ........    ....        ..                ",
"            ......    ........    ....        ..                ",
"            ..        ..    ..        ..      ..                ",
"            ..        ..    ..        ..      ..                ",
"            ........  ..    ..  ......        ..                ",
"            ........  ..    ..  ......        ..                ",
"                                                                ",
"                                                                ",
"                                                                ",
"                                                                ",
"                                                                ",
"                                                                ",
"                                                                ",
"                                                                ",
"                                                                ",
"                                                                ",
"                                                                ",
"                                                                ",
"                                                                ",
"                                                                ",
"                                                                ",
"                                                                ",
"                                                                ",
"                                                                ",
"                                                                ",
"                                                                ",
"                                                                ",
"                                                                ",
"                                                                ",
"                                                                ",
"                                                                ",
"                                                                ",
"                                                                ",
"                                                                ",
"                                                                ",
"                                                                "
};
