/* XPM */
static char *_42b722b87dd40128a6002d56aae53e1bo93ecZk9RT9SOB1[] = {
/* columns rows colors chars-per-pixel */
"64 64 2 1 ",
"  c #464646",
". c white",
/* pixels */
"....................                        ....................",
"....................                        ....................",
"....................                        ....................",
"....................                        ....................",
"....................                        ....................",
"....................                        ....................",
"....................                        ....................",
"....................                        ....................",
"....................                        ....................",
"....................                        ....................",
"....................                        ....................",
"....................                        ....................",
"....................                        ....................",
"....................                        ....................",
"....................                        ....................",
"....................                        ....................",
"....................                        ....................",
"....................                        ....................",
"....................                        ....................",
"                    ........................                    ",
"                    ........................                    ",
"                    ........................                    ",
"                    ........................                    ",
"                    ........................                    ",
"                    ........................                    ",
"                    ........................                    ",
"                    ........................                    ",
"                    ........................                    ",
"                    ........................                    ",
"                    ........................                    ",
"                    ........................                    ",
"                    ........................                    ",
"                    ........................                    ",
"                    ........................                    ",
"                    ........................                    ",
"                    ........................                    ",
"                    ........................                    ",
"                    ........................                    ",
"                    ........................                    ",
"                    ........................                    ",
"                    ........................                    ",
"                    ........................                    ",
"                    ........................                    ",
"....................                        ....................",
"....................                        ....................",
"....................                        ....................",
"....................                        ....................",
"....................                        ....................",
"....................                        ....................",
"....................                        ....................",
"....................                        ....................",
"....................                        ....................",
"....................                        ....................",
"....................                        ....................",
"....................                        ....................",
"....................                        ....................",
"....................                        ....................",
"....................                        ....................",
"....................                        ....................",
"....................                        ....................",
"....................                        ....................",
"....................                        ....................",
"....................                        ....................",
"....................                        ...................."
};
