/* XPM */
static char *_f0bc6f29eb344dddd620f7743cf7f489mHHCyZ6SZiwuDNV[] = {
/* columns rows colors chars-per-pixel */
"64 64 2 1 ",
"  c #2F3699",
". c #00B7EF",
/* pixels */
"                                                                ",
"                                                                ",
"                                                                ",
"                                                                ",
"                                                                ",
"                                                                ",
"                                                                ",
"                                                                ",
"                                                                ",
"                                                                ",
"                                                                ",
"                                                                ",
"                                                                ",
"                                                                ",
"                                                                ",
"                                                                ",
"                                                                ",
"                                                                ",
"                                                                ",
"                                                                ",
"                                                                ",
"                                                                ",
"                                                                ",
"       ..    ..    ....    ......    ..........  ..    ..       ",
"       ..    ..    ....    ......    ..........  ..    ..       ",
"       ....  ..  ..    ..  ..    ..      ..      ..    ..       ",
"       ....  ..  ..    ..  ..    ..      ..      ..    ..       ",
"       ..  ....  ..    ..  ......        ..      ........       ",
"       ..  ....  ..    ..  ......        ..      ........       ",
"       ..    ..  ..    ..  ..  ..        ..      ..    ..       ",
"       ..    ..  ..    ..  ..  ..        ..      ..    ..       ",
"       ..    ..    ....    ..    ..      ..      ..    ..       ",
"       ..    ..    ....    ..    ..      ..      ..    ..       ",
"                                                                ",
"                                                                ",
"                                                                ",
"                                                                ",
"                                                                ",
"                                                                ",
"                                                                ",
"                                                                ",
"                                                                ",
"                                                                ",
"                                                                ",
"                                                                ",
"                                                                ",
"                                                                ",
"                                                                ",
"                                                                ",
"                                                                ",
"                                                                ",
"                                                                ",
"                                                                ",
"                                                                ",
"                                                                ",
"                                                                ",
"                                                                ",
"                                                                ",
"                                                                ",
"                                                                ",
"                                                                ",
"                                                                ",
"                                                                ",
"                                                                "
};
