/* XPM */
static char *d2f7259698b44bf0984ac7fda0abc508fPh0lJcGQnej0yA4[] = {
/* columns rows colors chars-per-pixel */
"64 64 2 1 ",
"  c #660005",
". c #ED1C24",
/* pixels */
"                                                                ",
"                                                                ",
"                                                                ",
"                                                                ",
"                                                                ",
"                                                                ",
"                                                                ",
"                                                                ",
"                                                                ",
"                                                                ",
"                                                                ",
"                                                                ",
"                                                                ",
"                                                                ",
"                                                                ",
"                                                                ",
"                                                                ",
"                                                                ",
"                                                                ",
"                                                                ",
"                                                                ",
"                                                                ",
"                                                                ",
"                                                                ",
"                                                                ",
"                                                                ",
"        ......    ....    ..    ..  ..........  ..    ..        ",
"        ......    ....    ..    ..  ..........  ..    ..        ",
"      ..        ..    ..  ..    ..      ..      ..    ..        ",
"      ..        ..    ..  ..    ..      ..      ..    ..        ",
"        ....    ..    ..  ..    ..      ..      ........        ",
"        ....    ..    ..  ..    ..      ..      ........        ",
"            ..  ..    ..  ..    ..      ..      ..    ..        ",
"            ..  ..    ..  ..    ..      ..      ..    ..        ",
"      ......      ....      ....        ..      ..    ..        ",
"      ......      ....      ....        ..      ..    ..        ",
"                                                                ",
"                                                                ",
"                                                                ",
"                                                                ",
"                                                                ",
"                                                                ",
"                                                                ",
"                                                                ",
"                                                                ",
"                                                                ",
"                                                                ",
"                                                                ",
"                                                                ",
"                                                                ",
"                                                                ",
"                                                                ",
"                                                                ",
"                                                                ",
"                                                                ",
"                                                                ",
"                                                                ",
"                                                                ",
"                                                                ",
"                                                                ",
"                                                                ",
"                                                                ",
"                                                                ",
"                                                                "
};
