/* XPM */
static char *_317dda0e5bb45f9b4481d33fd0fd112qd4rjtvihCcA6ldD[] = {
/* columns rows colors chars-per-pixel */
"64 64 2 1 ",
"  c #9C5A3C",
". c #FF7E00",
/* pixels */
"................................................................",
"................................................................",
"................................................................",
"................................................................",
"................................................................",
"................................................................",
"................................................................",
"................................................................",
"................................................................",
"................................................................",
"................................................................",
"................................................................",
"................................................................",
"................................................................",
"................................................................",
"................................................................",
"................................................................",
"................................................................",
"................................................................",
"................................................................",
"................................................................",
"................................................................",
"................................................................",
"..........  ......  ..        ....      ..          ............",
"..........  ......  ..        ....      ..          ............",
"..........  ......  ..  ........  ............  ................",
"..........  ......  ..  ........  ............  ................",
"..........  ..  ..  ..      ......    ........  ................",
"..........  ..  ..  ..      ......    ........  ................",
"..........    ..    ..  ..............  ......  ................",
"..........    ..    ..  ..............  ......  ................",
"..........  ......  ..        ..      ........  ................",
"..........  ......  ..        ..      ........  ................",
"................................................................",
"................................................................",
"................................................................",
"................................................................",
"................................................................",
"................................................................",
"................................................................",
"................................................................",
"................................................................",
"................................................................",
"................................................................",
"................................................................",
"................................................................",
"................................................................",
"................................................................",
"................................................................",
"................................................................",
"................................................................",
"................................................................",
"................................................................",
"................................................................",
"................................................................",
"................................................................",
"................................................................",
"................................................................",
"................................................................",
"................................................................",
"................................................................",
"................................................................",
"................................................................",
"................................................................"
};
